<svg width="15" height="14" viewBox="0 0 15 14" fill="none" xmlns="http://www.w3.org/2000/svg">
<path d="M7.43055 4.89878L7.75455 5.6566C7.77651 5.7225 7.83692 5.76094 7.89733 5.76643L8.72105 5.84331C8.89677 5.85978 8.96267 6.07395 8.83637 6.18927L8.21583 6.73292C8.16641 6.77686 8.14444 6.84275 8.16092 6.90316L8.34214 7.7104C8.38058 7.88064 8.19936 8.01243 8.0456 7.92457L7.3372 7.50173C7.28228 7.46878 7.21089 7.46878 7.15598 7.50173L6.44758 7.92457C6.29931 8.01243 6.1126 7.88064 6.15104 7.7104L6.33226 6.90316C6.34873 6.84275 6.32677 6.77686 6.27734 6.73292L5.65681 6.18927C5.52501 6.07395 5.5964 5.85978 5.77213 5.84331L6.59585 5.76643C6.66175 5.76094 6.71666 5.72249 6.74412 5.66209L7.06812 4.90427C7.13401 4.73952 7.35916 4.73952 7.43055 4.89878Z" stroke="#F0C932" stroke-width="0.549146" stroke-miterlimit="10" stroke-linecap="round" stroke-linejoin="round"/>
<path d="M10.9821 6.50484C10.9962 4.4425 9.33589 2.75914 7.27355 2.74494C5.21122 2.73075 3.52785 4.3911 3.51366 6.45344C3.49947 8.51578 5.15982 10.1991 7.22216 10.2133C9.2845 10.2275 10.9679 8.56718 10.9821 6.50484Z" stroke="#F0C932" stroke-width="0.549146" stroke-miterlimit="10" stroke-linecap="round" stroke-linejoin="round"/>
<path d="M6.73861 10.1761L5.81055 12.5099L4.63538 11.1645L2.86163 11.3293L4.03681 8.38585" stroke="#F0C932" stroke-width="0.549146" stroke-miterlimit="10" stroke-linecap="round" stroke-linejoin="round"/>
<path d="M7.74907 10.1761L8.68262 12.51L9.8523 11.1645L11.6315 11.3293L10.4509 8.38586" stroke="#F0C932" stroke-width="0.549146" stroke-miterlimit="10" stroke-linecap="round" stroke-linejoin="round"/>
</svg>
