<svg width="56" height="14" viewBox="0 0 56 14" fill="none" xmlns="http://www.w3.org/2000/svg">
<path d="M17.2503 9.21988V3.82826H19.3775C19.7864 3.82826 20.1348 3.90636 20.4227 4.06256C20.7105 4.21701 20.9299 4.43201 21.0808 4.70756C21.2335 4.98135 21.3099 5.29727 21.3099 5.6553C21.3099 6.01334 21.2326 6.32926 21.0782 6.60305C20.9237 6.87684 20.7 7.09008 20.4069 7.24278C20.1155 7.39547 19.7627 7.47182 19.3485 7.47182H17.9927V6.55829H19.1643C19.3837 6.55829 19.5644 6.52056 19.7066 6.44509C19.8505 6.36787 19.9576 6.26168 20.0278 6.12654C20.0997 5.98965 20.1357 5.83257 20.1357 5.6553C20.1357 5.47628 20.0997 5.32008 20.0278 5.1867C19.9576 5.05155 19.8505 4.94713 19.7066 4.87341C19.5627 4.79794 19.3801 4.76021 19.159 4.76021H18.3903V9.21988H17.2503ZM23.1507 3.82826V9.21988H22.0292V3.82826H23.1507ZM25.2022 9.29623C24.9442 9.29623 24.7143 9.25147 24.5124 9.16196C24.3106 9.0707 24.1509 8.93643 24.0333 8.75917C23.9175 8.58015 23.8596 8.35726 23.8596 8.09048C23.8596 7.86583 23.9008 7.67716 23.9833 7.52447C24.0658 7.37178 24.1781 7.24892 24.3203 7.1559C24.4624 7.06288 24.6239 6.99268 24.8047 6.94529C24.9872 6.8979 25.1785 6.86456 25.3786 6.84525C25.6138 6.82068 25.8033 6.79786 25.9472 6.7768C26.0911 6.75399 26.1956 6.72064 26.2605 6.67676C26.3254 6.63289 26.3579 6.56795 26.3579 6.48195V6.46615C26.3579 6.29942 26.3053 6.17042 26.2 6.07916C26.0964 5.98789 25.949 5.94226 25.7577 5.94226C25.5558 5.94226 25.3953 5.98701 25.2759 6.07652C25.1566 6.16428 25.0776 6.27485 25.039 6.40823L24.0017 6.32399C24.0544 6.07828 24.1579 5.86591 24.3124 5.68689C24.4668 5.50612 24.666 5.36747 24.91 5.27094C25.1557 5.17265 25.44 5.12351 25.7629 5.12351C25.9876 5.12351 26.2026 5.14984 26.4079 5.20249C26.615 5.25514 26.7984 5.33676 26.9582 5.44733C27.1196 5.5579 27.2469 5.70006 27.3399 5.87381C27.4329 6.04581 27.4794 6.25203 27.4794 6.49248V9.21988H26.4158V8.65913H26.3842C26.3193 8.7855 26.2324 8.89694 26.1236 8.99347C26.0148 9.08825 25.884 9.16284 25.7314 9.21725C25.5787 9.2699 25.4023 9.29623 25.2022 9.29623ZM25.5234 8.52223C25.6884 8.52223 25.834 8.48976 25.9604 8.42483C26.0868 8.35813 26.1859 8.26862 26.2579 8.1563C26.3298 8.04397 26.3658 7.91673 26.3658 7.77457V7.34545C26.3307 7.36827 26.2824 7.38933 26.221 7.40863C26.1613 7.42618 26.0938 7.44286 26.0183 7.45865C25.9428 7.47269 25.8674 7.48586 25.7919 7.49814C25.7164 7.50867 25.648 7.51833 25.5866 7.5271C25.4549 7.54641 25.34 7.57712 25.2417 7.61924C25.1434 7.66136 25.0671 7.7184 25.0126 7.79036C24.9582 7.86057 24.931 7.94832 24.931 8.05363C24.931 8.20632 24.9863 8.32303 25.0969 8.40376C25.2092 8.48274 25.3514 8.52223 25.5234 8.52223ZM28.8971 10.7363C28.7549 10.7363 28.6215 10.7249 28.4969 10.702C28.3741 10.681 28.2723 10.6538 28.1915 10.6204L28.4443 9.78326C28.5759 9.82363 28.6944 9.84557 28.7997 9.84908C28.9067 9.85259 28.9989 9.82802 29.0761 9.77536C29.1551 9.72271 29.2191 9.6332 29.2683 9.50684L29.3341 9.33571L27.8835 5.17617H29.0629L29.9001 8.14577H29.9422L30.7873 5.17617H31.9746L30.4029 9.6569C30.3275 9.87453 30.2248 10.0641 30.0949 10.2255C29.9668 10.3888 29.8045 10.5143 29.6079 10.602C29.4113 10.6915 29.1744 10.7363 28.8971 10.7363ZM35.2595 3.82826L36.5626 7.92463H36.6127L37.9184 3.82826H39.1821L37.3235 9.21988H35.8545L33.9932 3.82826H35.2595ZM39.81 9.21988V5.17617H40.9315V9.21988H39.81ZM40.3734 4.65491C40.2066 4.65491 40.0636 4.59962 39.9442 4.48905C39.8267 4.37672 39.7679 4.24246 39.7679 4.08626C39.7679 3.93181 39.8267 3.7993 39.9442 3.68873C40.0636 3.57641 40.2066 3.52024 40.3734 3.52024C40.5401 3.52024 40.6823 3.57641 40.7998 3.68873C40.9192 3.7993 40.9789 3.93181 40.9789 4.08626C40.9789 4.24246 40.9192 4.37672 40.7998 4.48905C40.6823 4.59962 40.5401 4.65491 40.3734 4.65491ZM43.3199 9.28569C43.0128 9.28569 42.7346 9.20672 42.4854 9.04876C42.2379 8.88905 42.0413 8.65474 41.8957 8.34585C41.7518 8.0352 41.6798 7.65434 41.6798 7.20329C41.6798 6.73995 41.7544 6.3547 41.9036 6.04756C42.0528 5.73867 42.2511 5.50788 42.4985 5.35518C42.7478 5.20074 43.0207 5.12351 43.3173 5.12351C43.5437 5.12351 43.7324 5.16212 43.8833 5.23935C44.036 5.31482 44.1589 5.40959 44.2519 5.52367C44.3467 5.636 44.4186 5.74657 44.4678 5.85538H44.502V3.82826H45.6208V9.21988H44.5151V8.57225H44.4678C44.4151 8.68458 44.3405 8.79603 44.244 8.9066C44.1492 9.01541 44.0255 9.1058 43.8728 9.17776C43.7218 9.24972 43.5376 9.28569 43.3199 9.28569ZM43.6753 8.39323C43.8561 8.39323 44.0088 8.34409 44.1334 8.24581C44.2598 8.14577 44.3563 8.00624 44.423 7.82722C44.4914 7.6482 44.5257 7.43847 44.5257 7.19802C44.5257 6.95758 44.4923 6.74872 44.4256 6.57146C44.3589 6.39419 44.2624 6.2573 44.136 6.16077C44.0097 6.06424 43.8561 6.01597 43.6753 6.01597C43.491 6.01597 43.3357 6.06599 43.2094 6.16603C43.083 6.26607 42.9873 6.40472 42.9224 6.58199C42.8575 6.75925 42.825 6.9646 42.825 7.19802C42.825 7.4332 42.8575 7.64118 42.9224 7.82195C42.9891 8.00097 43.0847 8.14138 43.2094 8.24317C43.3357 8.34321 43.491 8.39323 43.6753 8.39323ZM48.3858 9.29886C47.9698 9.29886 47.6118 9.21461 47.3116 9.04613C47.0133 8.87588 46.7834 8.63544 46.6219 8.32479C46.4604 8.01238 46.3797 7.64294 46.3797 7.21645C46.3797 6.8005 46.4604 6.43544 46.6219 6.12128C46.7834 5.80712 47.0106 5.56228 47.3037 5.38678C47.5986 5.21127 47.9444 5.12351 48.341 5.12351C48.6078 5.12351 48.8561 5.16651 49.086 5.25251C49.3177 5.33676 49.5195 5.464 49.6915 5.63424C49.8653 5.80449 50.0004 6.01861 50.097 6.2766C50.1935 6.53285 50.2418 6.83296 50.2418 7.17696V7.48498H46.8272V6.78996H49.1861C49.1861 6.6285 49.151 6.48546 49.0808 6.36085C49.0106 6.23624 48.9132 6.13883 48.7885 6.06863C48.6657 5.99667 48.5227 5.96069 48.3594 5.96069C48.1892 5.96069 48.0383 6.00018 47.9066 6.07916C47.7767 6.15638 47.6749 6.26081 47.6012 6.39244C47.5275 6.52231 47.4898 6.66711 47.488 6.82682V7.48761C47.488 7.68769 47.5249 7.86057 47.5986 8.00624C47.6741 8.15191 47.7803 8.26424 47.9172 8.34321C48.054 8.42219 48.2164 8.46168 48.4042 8.46168C48.5288 8.46168 48.6429 8.44413 48.7464 8.40903C48.85 8.37393 48.9386 8.32128 49.0123 8.25107C49.086 8.18087 49.1422 8.09487 49.1808 7.99308L50.2181 8.06152C50.1654 8.31075 50.0575 8.52838 49.8943 8.71441C49.7328 8.8987 49.5239 9.04262 49.2677 9.14617C49.0132 9.24796 48.7192 9.29886 48.3858 9.29886ZM52.8007 9.29886C52.3917 9.29886 52.0381 9.21198 51.7397 9.03823C51.4431 8.86272 51.2141 8.61876 51.0526 8.30636C50.8911 7.9922 50.8104 7.62802 50.8104 7.21382C50.8104 6.79611 50.8911 6.43105 51.0526 6.11865C51.2141 5.80449 51.4431 5.56053 51.7397 5.38678C52.0381 5.21127 52.3917 5.12351 52.8007 5.12351C53.2096 5.12351 53.5624 5.21127 53.859 5.38678C54.1574 5.56053 54.3873 5.80449 54.5487 6.11865C54.7102 6.43105 54.7909 6.79611 54.7909 7.21382C54.7909 7.62802 54.7102 7.9922 54.5487 8.30636C54.3873 8.61876 54.1574 8.86272 53.859 9.03823C53.5624 9.21198 53.2096 9.29886 52.8007 9.29886ZM52.8059 8.43009C52.992 8.43009 53.1473 8.37744 53.2719 8.27213C53.3965 8.16507 53.4904 8.0194 53.5536 7.83512C53.6185 7.65083 53.651 7.4411 53.651 7.20592C53.651 6.97074 53.6185 6.76101 53.5536 6.57672C53.4904 6.39244 53.3965 6.24677 53.2719 6.13971C53.1473 6.03265 52.992 5.97912 52.8059 5.97912C52.6181 5.97912 52.4602 6.03265 52.3321 6.13971C52.2057 6.24677 52.11 6.39244 52.0451 6.57672C51.9819 6.76101 51.9503 6.97074 51.9503 7.20592C51.9503 7.4411 51.9819 7.65083 52.0451 7.83512C52.11 8.0194 52.2057 8.16507 52.3321 8.27213C52.4602 8.37744 52.6181 8.43009 52.8059 8.43009Z" fill="#141E32"/>
<circle cx="6.6912" cy="6.7504" r="6.58976" fill="#F0C932"/>
<path d="M9.67712 6.75036L5.3526 9.24712V4.25359L9.67712 6.75036Z" fill="white"/>
</svg>
