<svg width="67" height="18" viewBox="0 0 67 18" fill="none" xmlns="http://www.w3.org/2000/svg">
<g filter="url(#filter0_d_32_199)">
<path d="M8.64417 1.42259C8.70582 1.23287 8.97423 1.23287 9.03587 1.42259L9.90341 4.09259C9.93097 4.17743 10.01 4.23488 10.0993 4.23488H12.9067C13.1061 4.23488 13.1891 4.49015 13.0277 4.60741L10.7565 6.25756C10.6843 6.31 10.6541 6.40295 10.6817 6.4878L11.5492 9.15779C11.6108 9.34752 11.3937 9.50528 11.2323 9.38803L8.96106 7.73788C8.88889 7.68544 8.79115 7.68544 8.71898 7.73788L6.44774 9.38803C6.28635 9.50528 6.06921 9.34752 6.13085 9.15779L6.99839 6.4878C7.02595 6.40295 6.99575 6.31 6.92358 6.25756L4.65234 4.60741C4.49095 4.49015 4.5739 4.23488 4.77339 4.23488H7.58079C7.67 4.23488 7.74907 4.17743 7.77664 4.09259L8.64417 1.42259Z" fill="#F1CC4A"/>
</g>
<path d="M35.0032 1.42265C35.0648 1.23293 35.3332 1.23293 35.3949 1.42265L36.2624 4.09265C36.29 4.1775 36.3691 4.23494 36.4583 4.23494H39.2657C39.4652 4.23494 39.5481 4.49022 39.3867 4.60747L37.1155 6.25762C37.0433 6.31006 37.0131 6.40301 37.0407 6.48786L37.9082 9.15785C37.9698 9.34758 37.7527 9.50535 37.5913 9.38809L35.3201 7.73794C35.2479 7.6855 35.1502 7.6855 35.078 7.73794L32.8068 9.38809C32.6454 9.50535 32.4282 9.34758 32.4899 9.15785L33.3574 6.48786C33.385 6.40301 33.3548 6.31006 33.2826 6.25762L31.0114 4.60747C30.85 4.49022 30.9329 4.23494 31.1324 4.23494H33.9398C34.029 4.23494 34.1081 4.1775 34.1356 4.09265L35.0032 1.42265Z" fill="#F1CC4A"/>
<path d="M21.8237 1.42265C21.8854 1.23293 22.1538 1.23293 22.2154 1.42265L23.0829 4.09265C23.1105 4.1775 23.1896 4.23494 23.2788 4.23494H26.0862C26.2857 4.23494 26.3686 4.49022 26.2072 4.60747L23.936 6.25762C23.8638 6.31006 23.8336 6.40301 23.8612 6.48786L24.7287 9.15785C24.7904 9.34758 24.5732 9.50535 24.4118 9.38809L22.1406 7.73794C22.0684 7.6855 21.9707 7.6855 21.8985 7.73794L19.6273 9.38809C19.4659 9.50535 19.2487 9.34758 19.3104 9.15785L20.1779 6.48786C20.2055 6.40301 20.1753 6.31006 20.1031 6.25762L17.8319 4.60747C17.6705 4.49022 17.7534 4.23494 17.9529 4.23494H20.7603C20.8495 4.23494 20.9286 4.1775 20.9562 4.09265L21.8237 1.42265Z" fill="#F1CC4A"/>
<path d="M48.1827 1.42265C48.2443 1.23293 48.5127 1.23293 48.5744 1.42265L49.4419 4.09265C49.4695 4.1775 49.5486 4.23494 49.6378 4.23494H52.4452C52.6447 4.23494 52.7276 4.49022 52.5662 4.60747L50.295 6.25762C50.2228 6.31006 50.1926 6.40301 50.2202 6.48786L51.0877 9.15785C51.1493 9.34758 50.9322 9.50535 50.7708 9.38809L48.4996 7.73794C48.4274 7.6855 48.3297 7.6855 48.2575 7.73794L45.9863 9.38809C45.8249 9.50535 45.6077 9.34758 45.6694 9.15785L46.5369 6.48786C46.5645 6.40301 46.5343 6.31006 46.4621 6.25762L44.1909 4.60747C44.0295 4.49022 44.1124 4.23494 44.3119 4.23494H47.1193C47.2085 4.23494 47.2876 4.1775 47.3151 4.09265L48.1827 1.42265Z" fill="#F1CC4A"/>
<path d="M61.3622 1.42265C61.4238 1.23293 61.6922 1.23293 61.7539 1.42265L62.6214 4.09265C62.649 4.1775 62.7281 4.23494 62.8173 4.23494H65.6247C65.8242 4.23494 65.9071 4.49022 65.7457 4.60747L63.4745 6.25762C63.4023 6.31006 63.3721 6.40301 63.3997 6.48786L64.2672 9.15785C64.3289 9.34758 64.1117 9.50535 63.9503 9.38809L61.6791 7.73794C61.6069 7.6855 61.5092 7.6855 61.437 7.73794L59.1658 9.38809C59.0044 9.50535 58.7872 9.34758 58.8489 9.15785L59.7164 6.48786C59.744 6.40301 59.7138 6.31006 59.6416 6.25762L57.3704 4.60747C57.209 4.49022 57.2919 4.23494 57.4914 4.23494H60.2988C60.388 4.23494 60.4671 4.1775 60.4947 4.09265L61.3622 1.42265Z" fill="#F1CC4A"/>
<defs>
<filter id="filter0_d_32_199" x="0.567078" y="1.28027" width="16.5459" height="16.148" filterUnits="userSpaceOnUse" color-interpolation-filters="sRGB">
<feFlood flood-opacity="0" result="BackgroundImageFix"/>
<feColorMatrix in="SourceAlpha" type="matrix" values="0 0 0 0 0 0 0 0 0 0 0 0 0 0 0 0 0 0 127 0" result="hardAlpha"/>
<feOffset dy="4"/>
<feGaussianBlur stdDeviation="2"/>
<feComposite in2="hardAlpha" operator="out"/>
<feColorMatrix type="matrix" values="0 0 0 0 0 0 0 0 0 0 0 0 0 0 0 0 0 0 0.25 0"/>
<feBlend mode="normal" in2="BackgroundImageFix" result="effect1_dropShadow_32_199"/>
<feBlend mode="normal" in="SourceGraphic" in2="effect1_dropShadow_32_199" result="shape"/>
</filter>
</defs>
</svg>
